<mxfile host="65bd71144e">
    <diagram id="5_qqcNZWB9fnww-vD72u" name="Main">
        <mxGraphModel dx="1035" dy="766" grid="1" gridSize="10" guides="1" tooltips="1" connect="1" arrows="1" fold="1" page="1" pageScale="1" pageWidth="1100" pageHeight="850" math="0" shadow="0">
            <root>
                <mxCell id="0"/>
                <mxCell id="1" parent="0"/>
            </root>
        </mxGraphModel>
    </diagram>
    <diagram id="Mw-HWDa3BtdP18z8yKkg" name="Activity">
        <mxGraphModel dx="1035" dy="766" grid="1" gridSize="10" guides="1" tooltips="1" connect="1" arrows="1" fold="1" page="1" pageScale="1" pageWidth="1100" pageHeight="850" math="0" shadow="0">
            <root>
                <mxCell id="D-njL3OQCVb2V_JMTwjO-0"/>
                <mxCell id="D-njL3OQCVb2V_JMTwjO-1" parent="D-njL3OQCVb2V_JMTwjO-0"/>
                <mxCell id="M1HqBvfXXZyb4KBsbc6Y-0" value="Activity" style="rounded=1;whiteSpace=wrap;html=1;arcSize=40;fontColor=#000000;fillColor=#ffffc0;strokeColor=#ff0000;" vertex="1" parent="D-njL3OQCVb2V_JMTwjO-1">
                    <mxGeometry x="180" y="170" width="120" height="40" as="geometry"/>
                </mxCell>
                <mxCell id="M1HqBvfXXZyb4KBsbc6Y-1" value="" style="edgeStyle=orthogonalEdgeStyle;html=1;verticalAlign=bottom;endArrow=open;endSize=8;strokeColor=#ff0000;" edge="1" source="M1HqBvfXXZyb4KBsbc6Y-0" parent="D-njL3OQCVb2V_JMTwjO-1">
                    <mxGeometry relative="1" as="geometry">
                        <mxPoint x="240" y="270" as="targetPoint"/>
                    </mxGeometry>
                </mxCell>
            </root>
        </mxGraphModel>
    </diagram>
    <diagram id="MNQdmKY2ocnF8lafpu76" name="Condition">
        <mxGraphModel dx="1035" dy="766" grid="1" gridSize="10" guides="1" tooltips="1" connect="1" arrows="1" fold="1" page="1" pageScale="1" pageWidth="1100" pageHeight="850" math="0" shadow="0">
            <root>
                <mxCell id="qRFTkaXcHccDnwEvD2QZ-0"/>
                <mxCell id="qRFTkaXcHccDnwEvD2QZ-1" parent="qRFTkaXcHccDnwEvD2QZ-0"/>
                <mxCell id="btgM4NuDeOPgvwILykuF-0" value="&lt;font color=&quot;#000000&quot;&gt;Condition&lt;/font&gt;" style="rhombus;whiteSpace=wrap;html=1;fillColor=#ffffc0;strokeColor=#ff0000;" vertex="1" parent="qRFTkaXcHccDnwEvD2QZ-1">
                    <mxGeometry x="440" y="340" width="80" height="40" as="geometry"/>
                </mxCell>
                <mxCell id="btgM4NuDeOPgvwILykuF-1" value="no" style="edgeStyle=orthogonalEdgeStyle;html=1;align=left;verticalAlign=bottom;endArrow=open;endSize=8;strokeColor=#ff0000;" edge="1" source="btgM4NuDeOPgvwILykuF-0" parent="qRFTkaXcHccDnwEvD2QZ-1">
                    <mxGeometry x="-1" relative="1" as="geometry">
                        <mxPoint x="620" y="360" as="targetPoint"/>
                    </mxGeometry>
                </mxCell>
                <mxCell id="btgM4NuDeOPgvwILykuF-2" value="yes" style="edgeStyle=orthogonalEdgeStyle;html=1;align=left;verticalAlign=top;endArrow=open;endSize=8;strokeColor=#ff0000;" edge="1" source="btgM4NuDeOPgvwILykuF-0" parent="qRFTkaXcHccDnwEvD2QZ-1">
                    <mxGeometry x="-1" relative="1" as="geometry">
                        <mxPoint x="480" y="440" as="targetPoint"/>
                    </mxGeometry>
                </mxCell>
            </root>
        </mxGraphModel>
    </diagram>
    <diagram id="nGMzLhkFMgxZ19KdFu-R" name="Start">
        <mxGraphModel dx="1035" dy="766" grid="1" gridSize="10" guides="1" tooltips="1" connect="1" arrows="1" fold="1" page="1" pageScale="1" pageWidth="1100" pageHeight="850" math="0" shadow="0">
            <root>
                <mxCell id="e8-eL8oxIOJXmnBfwDSf-0"/>
                <mxCell id="e8-eL8oxIOJXmnBfwDSf-1" parent="e8-eL8oxIOJXmnBfwDSf-0"/>
                <mxCell id="fQyRGjuKUzpu40O47YFH-0" value="" style="ellipse;html=1;shape=startState;fillColor=#000000;strokeColor=#ff0000;fontColor=#000000;" vertex="1" parent="e8-eL8oxIOJXmnBfwDSf-1">
                    <mxGeometry x="510" y="350" width="30" height="30" as="geometry"/>
                </mxCell>
                <mxCell id="fQyRGjuKUzpu40O47YFH-1" value="" style="edgeStyle=orthogonalEdgeStyle;html=1;verticalAlign=bottom;endArrow=open;endSize=8;strokeColor=#ff0000;fontColor=#000000;" edge="1" source="fQyRGjuKUzpu40O47YFH-0" parent="e8-eL8oxIOJXmnBfwDSf-1">
                    <mxGeometry relative="1" as="geometry">
                        <mxPoint x="525" y="440" as="targetPoint"/>
                    </mxGeometry>
                </mxCell>
            </root>
        </mxGraphModel>
    </diagram>
    <diagram id="i3K0ybWVtt7FKd0s6J60" name="End">
        <mxGraphModel dx="1035" dy="766" grid="1" gridSize="10" guides="1" tooltips="1" connect="1" arrows="1" fold="1" page="1" pageScale="1" pageWidth="1100" pageHeight="850" math="0" shadow="0">
            <root>
                <mxCell id="ILzhg6HT88FxKPV-DmOu-0"/>
                <mxCell id="ILzhg6HT88FxKPV-DmOu-1" parent="ILzhg6HT88FxKPV-DmOu-0"/>
                <mxCell id="J39DqiBcnYzAJPzt94Cr-0" value="" style="ellipse;html=1;shape=endState;fillColor=#000000;strokeColor=#ff0000;fontColor=#000000;" vertex="1" parent="ILzhg6HT88FxKPV-DmOu-1">
                    <mxGeometry x="510" y="380" width="30" height="30" as="geometry"/>
                </mxCell>
            </root>
        </mxGraphModel>
    </diagram>
</mxfile>